<?xml version="1.0" encoding="UTF-8" standalone="no"?>
<svg
   xmlns:dc="http://purl.org/dc/elements/1.1/"
   xmlns:cc="http://creativecommons.org/ns#"
   xmlns:rdf="http://www.w3.org/1999/02/22-rdf-syntax-ns#"
   xmlns:svg="http://www.w3.org/2000/svg"
   xmlns="http://www.w3.org/2000/svg"
   xmlns:sodipodi="http://sodipodi.sourceforge.net/DTD/sodipodi-0.dtd"
   xmlns:inkscape="http://www.inkscape.org/namespaces/inkscape"
   fill="#000000"
   height="48"
   viewBox="0 0 24 24"
   width="48"
   id="svg3402"
   version="1.1"
   inkscape:version="0.91 r13725"
   sodipodi:docname="hijacker_red_48px.svg">
  <metadata
     id="metadata3412">
    <rdf:RDF>
      <cc:Work
         rdf:about="">
        <dc:format>image/svg+xml</dc:format>
        <dc:type
           rdf:resource="http://purl.org/dc/dcmitype/StillImage" />
        <dc:title></dc:title>
      </cc:Work>
    </rdf:RDF>
  </metadata>
  <defs
     id="defs3410">
    <inkscape:perspective
       sodipodi:type="inkscape:persp3d"
       inkscape:vp_x="0.11079802 : -0.0031183717 : 1"
       inkscape:vp_y="0 : 1000 : 0"
       inkscape:vp_z="23.926135 : 0.0338143 : 1"
       inkscape:persp3d-origin="12 : 8 : 1"
       id="perspective3430" />
  </defs>
  <sodipodi:namedview
     pagecolor="#ffffff"
     bordercolor="#666666"
     borderopacity="1"
     objecttolerance="10"
     gridtolerance="10"
     guidetolerance="10"
     inkscape:pageopacity="0"
     inkscape:pageshadow="2"
     inkscape:window-width="1855"
     inkscape:window-height="1056"
     id="namedview3408"
     showgrid="false"
     inkscape:zoom="13.538148"
     inkscape:cx="9.3145704"
     inkscape:cy="26.132885"
     inkscape:window-x="65"
     inkscape:window-y="24"
     inkscape:window-maximized="1"
     inkscape:current-layer="svg3402" />
  <path
     d="M 12,2 C 8.13,2 5,5.13 5,9 c 0,5.25 7,13 7,13 0,0 7,-7.75 7,-13 0,-3.87 -3.13,-7 -7,-7 z"
     id="path3404"
     inkscape:connector-curvature="0"
     sodipodi:nodetypes="sscss"
     style="fill:#ff0000" />
  <path
     d="M0 0h24v24H0z"
     fill="none"
     id="path3406" />
  <path
     style="fill:#ffd42a;fill-opacity:1"
     d="M 13.286731,14.202907 C 13.644875,13.921192 13.9379,13.484416 13.9379,13.2323 c 0,-0.621538 -1.148379,-1.482821 -1.97709,-1.482821 -0.828713,0 -1.9770893,0.861283 -1.9770893,1.482821 0,0.621531 1.1483763,1.482816 1.9770893,1.482816 0.371112,0 0.967776,-0.230496 1.325921,-0.512209 z"
     id="path4152"
     inkscape:connector-curvature="0" />
  <path
     style="fill:#ffd42a;fill-opacity:1"
     d="m 10.494239,9.5165584 c 0.262914,-0.140713 0.478026,-0.4002005 0.478026,-0.5766512 0,-0.4160982 -1.6625843,-2.0784631 -2.2722711,-2.27197 C 8.1318212,6.487606 7.018084,7.1642049 7.018084,7.6897015 c 0,0.5348142 0.6716936,1.7670309 1.0451288,1.9172819 0.5570976,0.224144 1.9393142,0.172733 2.4310262,-0.09043 z"
     id="path4150"
     inkscape:connector-curvature="0" />
  <path
     style="fill:#ffd42a;fill-opacity:1"
     d="m 15.780352,9.6188704 c 0.442266,-0.169715 1.123184,-1.3392526 1.123184,-1.9291722 0,-0.5254966 -1.113738,-1.2020954 -1.68191,-1.0217645 -0.607007,0.1926568 -2.272271,1.8550718 -2.272271,2.2683852 0,0.6694405 1.759609,1.0936781 2.830997,0.6825515 z"
     id="path4403"
     inkscape:connector-curvature="0" />
</svg>
