<?xml version="1.0" encoding="UTF-8" standalone="no"?>
<svg
   xmlns:dc="http://purl.org/dc/elements/1.1/"
   xmlns:cc="http://creativecommons.org/ns#"
   xmlns:rdf="http://www.w3.org/1999/02/22-rdf-syntax-ns#"
   xmlns:svg="http://www.w3.org/2000/svg"
   xmlns="http://www.w3.org/2000/svg"
   xmlns:sodipodi="http://sodipodi.sourceforge.net/DTD/sodipodi-0.dtd"
   xmlns:inkscape="http://www.inkscape.org/namespaces/inkscape"
   height="40"
   viewBox="0 0 28 40"
   width="28"
   id="svg2"
   version="1.1"
   inkscape:version="0.91 r13725"
   sodipodi:docname="ic_danger_location_black_24px.svg"
   style="fill:#000000">
  <metadata
     id="metadata12">
    <rdf:RDF>
      <cc:Work
         rdf:about="">
        <dc:format>image/svg+xml</dc:format>
        <dc:type
           rdf:resource="http://purl.org/dc/dcmitype/StillImage" />
        <dc:title></dc:title>
      </cc:Work>
    </rdf:RDF>
  </metadata>
  <defs
     id="defs10" />
  <sodipodi:namedview
     pagecolor="#ffffff"
     bordercolor="#666666"
     borderopacity="1"
     objecttolerance="10"
     gridtolerance="10"
     guidetolerance="10"
     inkscape:pageopacity="0"
     inkscape:pageshadow="2"
     inkscape:window-width="1855"
     inkscape:window-height="1056"
     id="namedview8"
     showgrid="false"
     inkscape:zoom="16"
     inkscape:cx="18.893738"
     inkscape:cy="19.193487"
     inkscape:window-x="65"
     inkscape:window-y="24"
     inkscape:window-maximized="1"
     inkscape:current-layer="svg2"
     fit-margin-top="0"
     fit-margin-left="0"
     fit-margin-right="0"
     fit-margin-bottom="0" />
  <path
     d="M 14.000112,-3.2043457e-4 C 6.2600503,-3.2043457e-4 0,6.2597299 0,13.999791 0,24.499876 14.000112,40 14.000112,40 c 0,0 14.000112,-15.500124 14.000112,-26.000209 0,-7.7400611 -6.260049,-14.00011143457 -14.000112,-14.00011143457 z"
     id="path4"
     inkscape:connector-curvature="0" />
  <g
     style="fill:#ffffff"
     id="g4174"
     transform="matrix(0.85398092,0,0,0.85398092,3.8419121,2.413071)">
    <path
       id="path4164"
       d="M 0,0 24,0 24,24 0,24 Z"
       inkscape:connector-curvature="0"
       style="fill:none" />
    <path
       id="path4166"
       d="M 1,21 23,21 12,2 1,21 Z m 12,-3 -2,0 0,-2 2,0 0,2 z m 0,-4 -2,0 0,-4 2,0 0,4 z"
       inkscape:connector-curvature="0" />
  </g>
</svg>
