<?xml version="1.0" encoding="UTF-8" standalone="no"?>
<!-- Created with Inkscape (http://www.inkscape.org/) -->

<svg
   xmlns:dc="http://purl.org/dc/elements/1.1/"
   xmlns:cc="http://creativecommons.org/ns#"
   xmlns:rdf="http://www.w3.org/1999/02/22-rdf-syntax-ns#"
   xmlns:svg="http://www.w3.org/2000/svg"
   xmlns="http://www.w3.org/2000/svg"
   xmlns:sodipodi="http://sodipodi.sourceforge.net/DTD/sodipodi-0.dtd"
   xmlns:inkscape="http://www.inkscape.org/namespaces/inkscape"
   id="svg3390"
   version="1.1"
   inkscape:version="0.91 r13725"
   width="28"
   height="40.000004"
   viewBox="0 0 28 40.000003"
   sodipodi:docname="ocha_infrastructure-police-station_simple-black_512x512.svg">
  <metadata
     id="metadata3396">
    <rdf:RDF>
      <cc:Work
         rdf:about="">
        <dc:format>image/svg+xml</dc:format>
        <dc:type
           rdf:resource="http://purl.org/dc/dcmitype/StillImage" />
        <dc:title></dc:title>
      </cc:Work>
    </rdf:RDF>
  </metadata>
  <defs
     id="defs3394" />
  <sodipodi:namedview
     pagecolor="#ffffff"
     bordercolor="#666666"
     borderopacity="1"
     objecttolerance="10"
     gridtolerance="10"
     guidetolerance="10"
     inkscape:pageopacity="0"
     inkscape:pageshadow="2"
     inkscape:window-width="1600"
     inkscape:window-height="876"
     id="namedview3392"
     showgrid="false"
     fit-margin-top="0"
     fit-margin-left="0"
     fit-margin-right="0"
     fit-margin-bottom="0"
     inkscape:zoom="11.116324"
     inkscape:cx="12.012346"
     inkscape:cy="22.870145"
     inkscape:window-x="183"
     inkscape:window-y="24"
     inkscape:window-maximized="1"
     inkscape:current-layer="g3488" />
  <g
     style="font-style:normal;font-weight:normal;font-size:1.34302378px;line-height:125%;font-family:sans-serif;letter-spacing:0px;word-spacing:0px;fill:#000000;fill-opacity:1;stroke:none;stroke-width:1px;stroke-linecap:butt;stroke-linejoin:miter;stroke-opacity:1"
     id="text3402"
     transform="translate(-48.21249,-484.68604)" />
  <flowRoot
     xml:space="preserve"
     id="flowRoot3406"
     style="font-style:normal;font-weight:normal;font-size:40px;line-height:125%;font-family:sans-serif;letter-spacing:0px;word-spacing:0px;fill:#000000;fill-opacity:1;stroke:none;stroke-width:1px;stroke-linecap:butt;stroke-linejoin:miter;stroke-opacity:1"
     transform="translate(-48.21249,-484.68604)"><flowRegion
       id="flowRegion3408"><rect
         id="rect3410"
         width="84.961914"
         height="178.28075"
         x="403.9173"
         y="270.90317" /></flowRegion><flowPara
       id="flowPara3412"></flowPara></flowRoot>  <g
     style="fill:#000000"
     id="g3488"
     transform="matrix(7.1516141,0,0,7.1516141,399.41754,-64.215971)">
    <path
       id="path3478"
       d="m -53.892385,8.9792276 c -1.082273,0 -1.9576,0.875327 -1.9576,1.9576004 0,1.4682 1.9576,3.635543 1.9576,3.635543 0,0 1.9576,-2.167343 1.9576,-3.635543 0,-1.0822734 -0.875327,-1.9576004 -1.9576,-1.9576004 z m -0.272036,2.5998324 0,0.752639 -0.44014,0 0,-2.136146 0.833331,0 q 0.24061,0 0.422535,0.08803 0.183391,0.08803 0.281689,0.25088 0.0983,0.161385 0.0983,0.36825 0,0.313967 -0.215669,0.495891 -0.2142,0.180458 -0.594188,0.180458 l -0.385856,0 z m 0,-0.356514 0.393191,0 q 0.17459,0 0.265551,-0.08216 0.09243,-0.08216 0.09243,-0.234741 0,-0.156984 -0.09243,-0.253814 -0.09243,-0.09683 -0.255281,-0.09976 l -0.403461,0 0,0.670479 z m 0.22915,1.560928 c -0.01576,-0.01772 -0.04515,-0.04398 -0.0653,-0.05836 -0.04729,-0.03375 -0.18442,-0.09647 -0.281623,-0.128813 -0.08907,-0.02964 -0.16906,-0.06305 -0.299297,-0.125021 -0.134647,-0.06407 -0.261236,-0.155296 -0.392321,-0.282739 -0.15487,-0.150566 -0.231799,-0.324907 -0.233112,-0.5283 -6.99e-4,-0.09908 0.01844,-0.182106 0.09711,-0.422534 0.02693,-0.08231 0.05494,-0.178697 0.06224,-0.214202 0.03703,-0.180019 -0.0087,-0.424524 -0.121047,-0.646633 l -0.03616,-0.07152 0.20941,-0.205274 0.209409,-0.2052744 0.04291,0.02862 c 0.0661,0.04409 0.12854,0.07443 0.20453,0.09939 0.188031,0.06174 0.387977,0.05348 0.576589,-0.02384 l 0.05618,-0.02303 0.05239,0.02256 c 0.06357,0.02738 0.146837,0.05089 0.21319,0.06019 0.06101,0.0086 0.214926,0.0038 0.276404,-0.0086 0.110005,-0.0221 0.227255,-0.07353 0.310613,-0.1362716 0.02325,-0.01749 0.04484,-0.0318 0.04798,-0.0318 0.0031,0 0.09341,0.08624 0.20061,0.1916816 0.107199,0.105405 0.199864,0.196263 0.205923,0.201905 0.01071,0.01 0.0096,0.01314 -0.03941,0.112049 -0.07545,0.152311 -0.114573,0.284443 -0.133415,0.450625 -0.01326,0.116851 0.0034,0.206864 0.08299,0.449973 0.08151,0.248825 0.08465,0.262857 0.08441,0.377833 -1.4e-4,0.110443 -0.01094,0.167047 -0.04937,0.261249 -0.06247,0.153057 -0.157149,0.259554 -0.37876,0.426033 -0.123655,0.09289 -0.152738,0.107987 -0.355045,0.18426 -0.144419,0.05445 -0.338087,0.137228 -0.387323,0.165549 -0.04058,0.02334 -0.09639,0.06933 -0.112067,0.09235 -0.0078,0.01138 -0.01543,0.02058 -0.01704,0.02043 -0.0017,-1.4e-4 -0.01583,-0.01479 -0.0316,-0.0325 z"
       inkscape:connector-curvature="0" />
  </g>
</svg>
